<svg xmlns="http://www.w3.org/2000/svg" xmlns:xlink="http://www.w3.org/1999/xlink" xml:space="preserve" overflow="hidden" viewBox="0 0 3923 1168"><defs><pattern id="b" width="17" height="32" overflow="hidden" patternTransform="scale(1 .98)" patternUnits="userSpaceOnUse"><use xlink:href="#a" width="100%" height="100%"/></pattern><pattern id="c" width="17" height="32" overflow="hidden" patternTransform="scale(1 .98)" patternUnits="userSpaceOnUse"><use xlink:href="#a" width="100%" height="100%"/></pattern><pattern id="d" width="17" height="32" overflow="hidden" patternTransform="scale(1 .98)" patternUnits="userSpaceOnUse"><use xlink:href="#a" width="100%" height="100%"/></pattern><pattern id="e" width="17" height="32" overflow="hidden" patternTransform="scale(1 .98)" patternUnits="userSpaceOnUse"><use xlink:href="#a" width="100%" height="100%"/></pattern><clipPath id="a"><path d="M416 538h3923v1168H416z"/></clipPath></defs><g clip-path="url(#a)" transform="translate(-416 -538)"><path d="M3075.5 1268h-682V854.3h682V1268Zm73-438a48.8 48.8 0 0 0-48.7-48.7h-730.6a48.8 48.8 0 0 0-48.7 48.7v511h828V830Zm-340.9 559.7v12.1c0 7.3-5 12.2-12.2 12.2h-121.8c-7.3 0-12.2-4.9-12.2-12.2v-12.1h-487v24.3a48.8 48.8 0 0 0 48.7 48.7h1022.8a48.8 48.8 0 0 0 48.8-48.7v-24.3h-487.1Z"/><path fill="#333" fill-rule="evenodd" stroke="#4D4D4D" stroke-width="6.8" d="M1777.4 792.8a51.3 51.3 0 0 0-51.4-51.4H496a51.2 51.2 0 0 0-51.5 51.4v621.8a51.2 51.2 0 0 0 51.4 51.4H1726a51.3 51.3 0 0 0 51.4-51.4Zm-17 7.5a42.4 42.4 0 1 1-84.8 0 42.4 42.4 0 0 1 84.8.1Zm-1.5 604.2a42.4 42.4 0 1 1-84.8 0 42.4 42.4 0 0 1 84.8 0Zm-1196-604.2v1a42.4 42.4 0 1 1 0-1Zm-1.6 602.8v1a42.4 42.4 0 1 1 0-1Z"/><path fill="#1A1A1A" fill-rule="evenodd" d="M1608.7 877.3v445.9h-498.3V877.3Z"/><path fill="#ECECEC" fill-rule="evenodd" d="M805.1 872.6v49H727v-49Zm27.2 139.3v44.8h-20.9v-44.8Zm-54.3 1.3v44.8h-21v-44.8Zm-61.3 1.4v44.8h-20.9v-44.8Z"/><path fill="#4D4D4D" fill-rule="evenodd" d="M845.9 920.1v95.2h-168V920Z"/><path fill="#CECCCB" d="M574 1255.2v75.4h-67.8v-75.4Z"/><path fill="#FFDC8E" d="M540 1316.9a23.7 23.7 0 1 1 0-47.3 23.7 23.7 0 0 1 0 47.3Z"/><path fill="#CECCCB" d="M485.6 1276.3v-9.2h-11.2c-5 0-9 4-9 9v.2Zm101.9 0v-9.2h11.2c5 0 9 4 9 9v.2Zm-101.9 2v35.5H468v-35.5Zm115.5 0v35.5h-17.6v-35.5Z"/><path fill="#CECCCB" d="M587.5 1302c0 .5-.1 1-.4 1.2-.3.3-.7.5-1.2.5a3.4 3.4 0 0 0-3.4 3.4v.2a3.6 3.6 0 0 0 3.6 3.6h3.8v14.7h-21V1314h-5v-14.7h2.6v-12.7H564V1272h5v-11.5h21v14.7h-3.8a3.6 3.6 0 0 0-3.6 3.6v.2a3.5 3.5 0 0 0 3.4 3.4 1.6 1.6 0 0 1 1.6 1.6Zm-101.9-18.3a1.6 1.6 0 0 1 1.6-1.6c.9 0 1.8-.3 2.4-1 .6-.6 1-1.5 1-2.4v-.2c0-1-.4-1.9-1-2.5-.7-.7-1.6-1-2.6-1h-3.8v-14.8h21v11.5h5v14.7h-2.6v12.7h2.6v14.7h-5v11.5h-21v-14.7h3.8a3.6 3.6 0 0 0 3.6-3.6v-.2a3.5 3.5 0 0 0-3.4-3.4 1.6 1.6 0 0 1-1.6-1.6Zm74.7-408.4v75.4h-67.7v-75.4Z"/><path fill="#FFDC8E" d="M526.4 937a23.7 23.7 0 1 1 0-47.3 23.7 23.7 0 0 1 0 47.3Z"/><path fill="#CECCCB" d="M478.8 896.4v-9.2h-11.2c-5 0-9 4-9 9v.1Zm95.2 0v-9.2h11c5 0 9 4 9 9v.1Zm-95.2 1.3v35.6H461v-35.6Zm115.5 0v35.6h-17.6v-35.6Z"/><path fill="#CECCCB" d="M574 921.5c0 .4-.2.8-.5 1.1-.3.3-.7.5-1.2.5a3.4 3.4 0 0 0-3.4 3.4v.2a3.6 3.6 0 0 0 3.6 3.6h3.8V945h-21v-11.5h-5v-14.7h2.6v-12.7h-2.6v-14.7h5V880h21v14.7h-3.8a3.6 3.6 0 0 0-3.6 3.6v.2a3.5 3.5 0 0 0 3.4 3.4 1.6 1.6 0 0 1 1.6 1.6Zm-95.2-17.7c0-.4.1-.8.4-1.1.3-.3.7-.5 1.2-.5a3.4 3.4 0 0 0 3.4-3.4v-.2a3.6 3.6 0 0 0-3.6-3.6h-3.8v-14.7h21v11.5h5v14.7h-2.6v12.7h2.6V934h-5v11.5h-21v-14.7h3.8a3.6 3.6 0 0 0 3.6-3.6v-.2a3.4 3.4 0 0 0-3.4-3.4 1.6 1.6 0 0 1-1.6-1.6ZM438 1192.7l-15.3 7.2a4 4 0 0 1-5.3-2 4 4 0 0 1 2-5.2l10.4-5h-1.4A12.5 12.5 0 0 1 416 1175l2-150.8a12.6 12.6 0 0 1 12.7-12.4h1.4l-10.4-5.2a4 4 0 0 1-1.8-5.3 4 4 0 0 1 5.4-1.8l15 7.5.1-4 140 1.8-2.4 191.6-140.1-1.8Z"/><path fill="#989898" d="m574 1154-12.3-.2c-.4 0-.8.2-1 .5l-14.4 23-11.3-.2.2-11.8-8.1-.1.2-17.9 8 .1.2-11.2 21.5.2a3.4 3.4 0 0 0 3.5-3.4l.1-10.7-8.9-.1.6-44 9 .2v-10.7a3.4 3.4 0 0 0-3.3-3.5l-21.5-.3.1-11.3-8-.1.2-17.9 8 .1.2-11.8 11.3.1s11.8 19.8 13.8 23.4c.2.3.6.5 1 .5l12.2.2Z"/><path fill="#E5E5E5" d="M1043 979.3v26h-63.2v-26Z"/><path fill="#F5ECDE" d="M1029.5 979.3v26h-36.1v-26Z"/><path fill="#E5E5E5" d="M1043 1213.7v26h-63.2v-26Z"/><path fill="#F5ECDE" d="M1029.5 1213.7v26h-36.1v-26Z"/><path fill="url(#b)" d="M0 0h94.5v20.4H0Z" transform="rotate(90 -182.2 1028.1)"/><path fill="url(#c)" d="M0 0h94.5v20.4H0Z" transform="rotate(-90 995.1 309)"/><path fill="url(#d)" d="M0 0h94.5v20.4H0Z" transform="rotate(180 406 667)"/><path fill="url(#e)" d="M0 0h94.5v20.4H0Z" transform="translate(718 1176.3)"/><path fill="#333" d="M825.5 1196v118.3H707.2v-118.2Z"/><text fill="#CCC" font-family="Arial,Arial_MSFontService,sans-serif" font-size="62" font-weight="400" transform="matrix(1.64 0 0 1.64 1165.5 1013)">Xedge</text><text fill="#CCC" font-family="Arial,Arial_MSFontService,sans-serif" font-size="62" font-weight="400" transform="matrix(1.64 0 0 1.64 1456.4 1013)">32</text><text fill="#CCC" font-family="Arial,Arial_MSFontService,sans-serif" font-size="62" font-weight="400" transform="matrix(1.64 0 0 1.64 1168.8 1141)">Powered</text><text fill="#CCC" font-family="Arial,Arial_MSFontService,sans-serif" font-size="62" font-weight="400" transform="matrix(1.64 0 0 1.64 1209.9 1268)">ESP</text><text fill="#CCC" font-family="Arial,Arial_MSFontService,sans-serif" font-size="62" font-weight="400" transform="matrix(1.64 0 0 1.64 1412 1268)">32</text><path fill="none" stroke="#6F6352" stroke-width="6.8" d="M1626.6 906.5h127.8V961h-78.2v69.3h74.8v57.7h-71.4v68h71.4v121h-137.3m134.8-62H1616"/><path fill="#0A0303" d="M692.9 790.7a24.8 24.8 0 1 1-49.7 0 24.8 24.8 0 0 1 49.7 0Zm93.1 0a24.8 24.8 0 1 1-49.6 0 24.8 24.8 0 0 1 49.6 0Zm93.2 0a24.8 24.8 0 1 1-49.6 0 24.8 24.8 0 0 1 49.6 0Zm93.2 0a24.8 24.8 0 1 1-49.7 0 24.8 24.8 0 0 1 49.7 0Zm93.1 0a24.8 24.8 0 1 1-49.6 0 24.8 24.8 0 0 1 49.6 0Zm93.2 0a24.8 24.8 0 1 1-49.7 0 24.8 24.8 0 0 1 49.7 0Zm93.2 0a24.8 24.8 0 1 1-49.7 0 24.8 24.8 0 0 1 49.7 0Zm93.1 0a24.8 24.8 0 1 1-49.6 0 24.8 24.8 0 0 1 49.6 0Zm93.2 0a24.8 24.8 0 1 1-49.7 0 24.8 24.8 0 0 1 49.7 0Zm93.2 0a24.8 24.8 0 1 1-49.7 0 24.8 24.8 0 0 1 49.7 0Zm93.1 0a24.8 24.8 0 1 1-49.6 0 24.8 24.8 0 0 1 49.6 0Zm-931.6 621.5a24.8 24.8 0 1 1-49.7 0 24.8 24.8 0 0 1 49.7 0Zm93.1 0a24.8 24.8 0 1 1-49.6 0 24.8 24.8 0 0 1 49.6 0Zm93.2 0a24.8 24.8 0 1 1-49.6 0 24.8 24.8 0 0 1 49.6 0Zm93.2 0a24.8 24.8 0 1 1-49.7 0 24.8 24.8 0 0 1 49.7 0Zm93.1 0a24.8 24.8 0 1 1-49.6 0 24.8 24.8 0 0 1 49.6 0Zm93.2 0a24.8 24.8 0 1 1-49.7 0 24.8 24.8 0 0 1 49.7 0Zm93.2 0a24.8 24.8 0 1 1-49.7 0 24.8 24.8 0 0 1 49.7 0Zm93.1 0a24.8 24.8 0 1 1-49.6 0 24.8 24.8 0 0 1 49.6 0Zm93.2 0a24.8 24.8 0 1 1-49.7 0 24.8 24.8 0 0 1 49.7 0Zm93.2 0a24.8 24.8 0 1 1-49.7 0 24.8 24.8 0 0 1 49.7 0Zm93.1 0a24.8 24.8 0 1 1-49.6 0 24.8 24.8 0 0 1 49.6 0Z"/><path d="m1942.8 1237.2-11.9-7.9 2.3-2.3a112 112 0 0 0 24.1-32.9 150.5 150.5 0 0 0 15.4-58.4c.4-5.7.3-19-.2-24.4-1.9-21-7-39.6-15.5-56.3a113 113 0 0 0-25.6-34c.5-.5 23.7-16.8 23.8-16.8a170.8 170.8 0 0 1 47 104.5 173.6 173.6 0 0 1-47 135.7l-.5.5-11.9-7.7Z"/><path d="m1891.8 1204.3-12.6-8.2c-.1-.1.5-.7 1.4-1.5a80 80 0 0 0 23.8-33.3 105 105 0 0 0 5.5-54.9 88.6 88.6 0 0 0-24.2-49l-2.5-2.5 12-8.5 12-8.5 1.7 1.7c9.5 9.9 17.9 23.9 23.2 38.8 6.5 18.4 9 39.3 7 59.6a121.5 121.5 0 0 1-26.7 66c-1.8 2.2-7.8 8.4-8 8.4l-12.6-8.1Zm-47-30.4-10.7-7 1.4-1.9a61 61 0 0 0 13.2-38.6 61 61 0 0 0-13-37.9c0-.1 20.3-14.4 20.7-14.5.3-.2 2.3 2.3 5 6.2a86.4 86.4 0 0 1 10.6 21.2 86.5 86.5 0 0 1 3.6 34 81.8 81.8 0 0 1-20.2 45.4l-10.6-6.9Zm-47.9-26.2c-7.9-1.3-14.2-7-16.3-14.9-.4-1.6-.5-2.2-.5-4.8 0-2.7 0-3.2.5-4.9a20 20 0 0 1 7.6-11.2 20.1 20.1 0 0 1 29.7 25.6 20.2 20.2 0 0 1-21 10.2Zm356.1-135.9 11.8 7.9-2.3 2.3a112 112 0 0 0-24 32.9 151.1 151.1 0 0 0-15.3 58.4c-.4 5.7-.3 19 .2 24.4 1.8 21 7 39.6 15.4 56.3a113 113 0 0 0 25.5 34c-.5.5-23.6 16.8-23.8 16.8a171.2 171.2 0 0 1-46.9-104.5 174.2 174.2 0 0 1 47-135.7l.5-.5 11.8 7.7Z"/><path d="m2203.7 1044.7 12.5 8.2c.1.1-.4.7-1.4 1.5a80 80 0 0 0-23.7 33.3 105.4 105.4 0 0 0-5.4 54.9 88.8 88.8 0 0 0 24.1 49l2.5 2.5-12 8.5-12 8.5-1.6-1.7a112 112 0 0 1-23-38.8c-6.6-18.4-9-39.3-7-59.6a121.8 121.8 0 0 1 26.5-66 114 114 0 0 1 8-8.4l12.5 8.1Zm46.8 30.4 10.6 7-1.3 1.9a61.3 61.3 0 0 0-13 38.6 61.2 61.2 0 0 0 12.7 37.9c0 .1-20.1 14.4-20.5 14.5-.4.2-2.3-2.3-5-6.2a86.6 86.6 0 0 1-10.6-21.2 86.9 86.9 0 0 1-3.5-34 82 82 0 0 1 20-45.4l10.6 6.9Zm47.7 26.2c7.8 1.3 14 7 16.2 14.9.4 1.6.5 2.2.5 4.8 0 2.7 0 3.2-.5 4.9a20 20 0 1 1-16.2-24.6Zm1680.9-363a343 343 0 0 0-320.6 276.2c-4.6 23-6.2 40.6-6.2 66.5 0 21.5.6 30.5 3.2 48.8a342 342 0 0 0 119.6 214.2 342.6 342.6 0 0 0 263 77.3 343.5 343.5 0 0 0 297.4-291.5 282 282 0 0 0 3.2-48.5 287 287 0 0 0-3.2-49 343.4 343.4 0 0 0-291.2-290.8c-16-2.3-26.1-3-44.5-3.2h-20.7Zm38.8 38.1c17.3 18.2 25 26.9 35.4 39.6 23 28.4 43 59.4 57.7 89.2 4.4 9 11.2 23.8 10.9 24a409.5 409.5 0 0 1-105.3 19.1l-4.5.3v-88.4c0-69.9.2-88.4.7-88.4.4 0 2.7 2 5.1 4.6Zm-39 84.9v87.4l-3.9-.3-11.7-.8a421.3 421.3 0 0 1-50.7-7c-14.2-3-40-9.7-40-10.5l4-9.5c19.2-43 45.7-84 79.1-122.4 7.8-9 22.1-24.3 22.7-24.3.2 0 .5 39.3.5 87.4Zm-51.3-82a514.2 514.2 0 0 0-86.8 139.6 377.4 377.4 0 0 1-78.8-41.6c0-1 26.6-27.2 33.6-32.9a311 311 0 0 1 132.2-65.7s0 .4-.2.7Zm146.3 2.2a309 309 0 0 1 154.6 95.4c.4.8-.3 1.5-5.6 5a428.2 428.2 0 0 1-68.7 35.6 39 39 0 0 1-4.1-7.9 511 511 0 0 0-73.8-118.2l-8.2-10c-.7-.9-1.1-1.6-.8-1.6l6.6 1.7Zm-311 136.5a436.8 436.8 0 0 0 55 28 179 179 0 0 1 10.8 4.8c.3.2-.1 2.2-.9 4.6a430.7 430.7 0 0 0-18.9 107.3l-.3 1.7-61.3-.1-61.2-.2.1-3.2a306.5 306.5 0 0 1 52.5-153.4l2.4-3.3 7 4.5 14.8 9.3Zm491.5-7.3a310.7 310.7 0 0 1 50.6 151.4l.2 2.3h-118.5l-.3-6.9a422 422 0 0 0-17.6-97.4c-1.5-5-2.8-9.5-2.8-10 0-.8 2.1-2 9.8-5.2a463.8 463.8 0 0 0 72.8-39.8c.6-.5 1.2-.7 1.4-.6.3.1 2.2 3 4.4 6.2ZM4135 964.4a383.3 383.3 0 0 1 17.8 95.4l.1 4.3-70.4.2H4012v-82.2l10.7-.7c34-2 72.3-8.8 102.9-18.3 3.8-1.1 7.3-2 7.7-2 .4 0 1.2 1.6 1.7 3.3Zm-265.6 0c31.7 9.2 65.7 15 98.8 17l10.6.7v82.3h-136.4v-2.4a406.2 406.2 0 0 1 18.5-100c.2 0 4 1 8.5 2.4Zm-60.6 134.4a383.9 383.9 0 0 0 3 34.5 437 437 0 0 0 17.8 78 43 43 0 0 1 2.2 8.6 454 454 0 0 0-77 39c-5 3-9.2 5.3-9.5 5a307 307 0 0 1-59.4-164.1l-.2-2.2h122.8l.3 1.2Zm170 44.9v46l-5.2.3a461.1 461.1 0 0 0-109.2 18.9 192 192 0 0 1-7.4-22.3 399.7 399.7 0 0 1-14.3-83.3l-.4-5.7h136.5v46Zm174.1-42.2a394.8 394.8 0 0 1-22 108.7 461.3 461.3 0 0 0-113.6-20.2l-5.3-.3v-92h141.2l-.3 3.8Zm152-1.9a309.6 309.6 0 0 1-59.4 164.4c-.3.2-4.5-2-9.5-5.2a465.2 465.2 0 0 0-68.4-35.3c-2.6-1-4.7-2-4.7-2.5a491.7 491.7 0 0 0 11.6-39c6.2-25.1 10-49.8 11.5-74.1l.7-10.3h118.5l-.3 2Zm-326.1 206v82.2l-6-6.1a504 504 0 0 1-91.7-131.3 77.9 77.9 0 0 1-4.2-10c.5-1 24.2-7 40.7-10 19.3-3.7 42.3-6.4 56.8-6.7l4.4-.1v82Zm56.6-80.6a426 426 0 0 1 76.2 14.4l5.8 1.7c.5.1 1 .5 1 .9a499.5 499.5 0 0 1-81.5 124 198.8 198.8 0 0 1-23.8 24.2c-1 0-1-2-1-83.4v-83.4l7.6.4c4.2.2 11.3.7 15.7 1.2Zm-182 45a509 509 0 0 0 68.5 105 123 123 0 0 1 6.6 8.3 309.5 309.5 0 0 1-154-85.2l-7.4-7.4 4.5-3c17.6-11.4 46.2-26 68.2-34.8l4.5-1.8 1.3 2.7 7.8 16.1Zm306.6-13.4c17 7.2 44.5 21.6 59.2 31.1l4.5 3-7.8 7.7a309.8 309.8 0 0 1-148 83.4l6.3-7.8a516.1 516.1 0 0 0 71-110.2 66 66 0 0 1 5.6-10.8 96 96 0 0 1 9.2 3.6Zm-886.2-184.8H3526v18.4h-252.2Zm9.2 36.7-55-27.5 55-27.5Zm233.9-55 55 27.5-55 27.5Z"/><text font-family="Calibri,Calibri_MSFontService,sans-serif" font-size="83" font-weight="700" transform="translate(3239.7 998)">Ethernet</text></g></svg>